# xmcd
#
# Track frame offsets: 
#        150
#        14743
#        28685
#        43661
#        60763
#        78118
#        98767
#        116670
#        132383
#        147574
#        164868
#
# Disc length: 2476 seconds
#
# Revision: 0
# Processed by: cddbd v1.5.2PL0 Copyright (c) Steve Scherf et al.
# Submitted via: ExactAudioCopy v0.99pb5
#
DISCID=9609aa0b
DTITLE=Booker T. Jones - The Road From Memphis
DYEAR=2011
DGENRE=R&B
TTITLE0=Walking Papers
TTITLE1=Crazy
TTITLE2=Progress (Feat. Yim Yames)
TTITLE3=The Hive
TTITLE4=Down In Memphis
TTITLE5=Everything Is Everything
TTITLE6=Rent Party
TTITLE7=Representing Memphis (Feat. Matt Berninger and Sharon Jones)
TTITLE8=The Vamp
TTITLE9=Harlem House
TTITLE10=The Bronx (Feat. Lou Reed)
EXTD=
EXTT0=
EXTT1=
EXTT2=
EXTT3=
EXTT4=
EXTT5=
EXTT6=
EXTT7=
EXTT8=
EXTT9=
EXTT10=
PLAYORDER=
